<mxfile host="app.diagrams.net" modified="2023-08-26T20:24:13.069Z" agent="Mozilla/5.0 (X11; Linux x86_64; rv:109.0) Gecko/20100101 Firefox/116.0" etag="3AEFb5k18lXzbeUGcSc0" version="21.3.2">
  <diagram name="Page-1" id="pRI9J95-LdVk1trJefGG">
    <mxGraphModel dx="1221" dy="605" grid="1" gridSize="10" guides="1" tooltips="1" connect="1" arrows="1" fold="1" page="1" pageScale="1" pageWidth="850" pageHeight="1100" math="0" shadow="0">
      <root>
        <mxCell id="0" />
        <mxCell id="1" parent="0" />
        <mxCell id="ZXHpGrxiDeVHdWuwlrww-4" value="&lt;div style=&quot;font-size: 20px;&quot;&gt;Diffusion Kernel&lt;/div&gt;" style="rounded=0;whiteSpace=wrap;html=1;fillColor=#4D9900;fontColor=#ffffff;strokeColor=#000000;strokeWidth=3;horizontal=0;fontSize=20;fontStyle=1" vertex="1" parent="1">
          <mxGeometry x="40" y="80" width="40" height="410" as="geometry" />
        </mxCell>
        <mxCell id="ZXHpGrxiDeVHdWuwlrww-31" value="372.74k Inst" style="edgeStyle=orthogonalEdgeStyle;rounded=0;orthogonalLoop=1;jettySize=auto;html=1;exitX=0;exitY=0.5;exitDx=0;exitDy=0;entryX=1;entryY=0.061;entryDx=0;entryDy=0;entryPerimeter=0;startArrow=classic;startFill=1;strokeWidth=3;verticalAlign=bottom;fontSize=20;" edge="1" parent="1" source="ZXHpGrxiDeVHdWuwlrww-6" target="ZXHpGrxiDeVHdWuwlrww-4">
          <mxGeometry relative="1" as="geometry" />
        </mxCell>
        <mxCell id="ZXHpGrxiDeVHdWuwlrww-40" value="1.37m Req" style="edgeStyle=orthogonalEdgeStyle;rounded=0;orthogonalLoop=1;jettySize=auto;html=1;exitX=1;exitY=0.25;exitDx=0;exitDy=0;entryX=-0.025;entryY=0.041;entryDx=0;entryDy=0;entryPerimeter=0;strokeWidth=3;fontSize=20;verticalAlign=bottom;startArrow=classic;startFill=1;endArrow=none;endFill=0;" edge="1" parent="1" source="ZXHpGrxiDeVHdWuwlrww-6" target="ZXHpGrxiDeVHdWuwlrww-12">
          <mxGeometry relative="1" as="geometry" />
        </mxCell>
        <mxCell id="ZXHpGrxiDeVHdWuwlrww-6" value="Global" style="rounded=0;whiteSpace=wrap;html=1;fillColor=#4D9900;fontColor=#ffffff;strokeColor=#000000;strokeWidth=3;fontSize=20;fontStyle=1" vertex="1" parent="1">
          <mxGeometry x="220" y="80" width="120" height="50" as="geometry" />
        </mxCell>
        <mxCell id="ZXHpGrxiDeVHdWuwlrww-22" value="0 Req" style="edgeStyle=orthogonalEdgeStyle;rounded=0;orthogonalLoop=1;jettySize=auto;html=1;exitX=0;exitY=0.25;exitDx=0;exitDy=0;entryX=1;entryY=0.25;entryDx=0;entryDy=0;strokeWidth=3;verticalAlign=bottom;fontSize=20;" edge="1" parent="1" source="ZXHpGrxiDeVHdWuwlrww-11" target="ZXHpGrxiDeVHdWuwlrww-21">
          <mxGeometry relative="1" as="geometry" />
        </mxCell>
        <mxCell id="ZXHpGrxiDeVHdWuwlrww-11" value="&lt;font style=&quot;font-size: 20px;&quot;&gt;Shared Memory&lt;br&gt;&lt;/font&gt;" style="rounded=0;whiteSpace=wrap;html=1;strokeWidth=3;fillColor=#000066;fontColor=#F0F0F0;fontStyle=1" vertex="1" parent="1">
          <mxGeometry x="480" y="440" width="120" height="50" as="geometry" />
        </mxCell>
        <mxCell id="ZXHpGrxiDeVHdWuwlrww-12" value="Unified&lt;br style=&quot;font-size: 20px;&quot;&gt;Cache&lt;br style=&quot;font-size: 20px;&quot;&gt;&lt;br style=&quot;font-size: 20px;&quot;&gt;77%" style="rounded=0;whiteSpace=wrap;html=1;strokeWidth=3;fillColor=#000066;fontSize=20;fontColor=#F0F0F0;fontStyle=1" vertex="1" parent="1">
          <mxGeometry x="480" y="80" width="120" height="320" as="geometry" />
        </mxCell>
        <mxCell id="ZXHpGrxiDeVHdWuwlrww-13" value="&lt;div style=&quot;font-size: 20px;&quot;&gt;L2 Cache&lt;/div&gt;&lt;div style=&quot;font-size: 20px;&quot;&gt;&lt;br style=&quot;font-size: 20px;&quot;&gt;&lt;/div&gt;&lt;div style=&quot;font-size: 20px;&quot;&gt;57%&lt;br style=&quot;font-size: 20px;&quot;&gt;&lt;/div&gt;" style="rounded=0;whiteSpace=wrap;html=1;strokeWidth=3;fillColor=#000066;fontSize=20;align=center;fontColor=#F0F0F0;fontStyle=1" vertex="1" parent="1">
          <mxGeometry x="740" y="80" width="120" height="320" as="geometry" />
        </mxCell>
        <mxCell id="ZXHpGrxiDeVHdWuwlrww-14" value="System Memory" style="rounded=0;whiteSpace=wrap;html=1;strokeWidth=3;fillColor=#000066;horizontal=0;fontSize=20;fontColor=#F0F0F0;fontStyle=1" vertex="1" parent="1">
          <mxGeometry x="1000" y="80" width="50" height="140" as="geometry" />
        </mxCell>
        <mxCell id="ZXHpGrxiDeVHdWuwlrww-16" value="&lt;font style=&quot;font-size: 20px;&quot;&gt;Device Memory&lt;br&gt;&lt;/font&gt;" style="rounded=0;whiteSpace=wrap;html=1;strokeWidth=3;fillColor=#000066;horizontal=0;fontColor=#F0F0F0;fontStyle=1" vertex="1" parent="1">
          <mxGeometry x="1000" y="260" width="50" height="140" as="geometry" />
        </mxCell>
        <mxCell id="ZXHpGrxiDeVHdWuwlrww-30" value="0 Inst" style="edgeStyle=orthogonalEdgeStyle;rounded=0;orthogonalLoop=1;jettySize=auto;html=1;exitX=0;exitY=0.5;exitDx=0;exitDy=0;entryX=1;entryY=0.28;entryDx=0;entryDy=0;entryPerimeter=0;startArrow=classic;startFill=1;strokeWidth=3;verticalAlign=bottom;fontSize=20;" edge="1" parent="1" source="ZXHpGrxiDeVHdWuwlrww-18" target="ZXHpGrxiDeVHdWuwlrww-4">
          <mxGeometry relative="1" as="geometry" />
        </mxCell>
        <mxCell id="ZXHpGrxiDeVHdWuwlrww-18" value="Local" style="rounded=0;whiteSpace=wrap;html=1;fillColor=#4D9900;fontColor=#ffffff;strokeColor=#000000;strokeWidth=3;fontSize=20;fontStyle=1" vertex="1" parent="1">
          <mxGeometry x="220" y="170" width="120" height="50" as="geometry" />
        </mxCell>
        <mxCell id="ZXHpGrxiDeVHdWuwlrww-29" value="0 Inst" style="edgeStyle=orthogonalEdgeStyle;rounded=0;orthogonalLoop=1;jettySize=auto;html=1;exitX=0;exitY=0.5;exitDx=0;exitDy=0;startArrow=none;startFill=0;strokeWidth=3;verticalAlign=bottom;fontSize=20;endArrow=classic;endFill=1;" edge="1" parent="1" source="ZXHpGrxiDeVHdWuwlrww-19" target="ZXHpGrxiDeVHdWuwlrww-4">
          <mxGeometry relative="1" as="geometry" />
        </mxCell>
        <mxCell id="ZXHpGrxiDeVHdWuwlrww-19" value="Texture" style="rounded=0;whiteSpace=wrap;html=1;fillColor=#4D9900;fontColor=#ffffff;strokeColor=#000000;strokeWidth=3;fontSize=20;fontStyle=1" vertex="1" parent="1">
          <mxGeometry x="220" y="260" width="120" height="50" as="geometry" />
        </mxCell>
        <mxCell id="ZXHpGrxiDeVHdWuwlrww-28" value="0 Inst" style="edgeStyle=orthogonalEdgeStyle;rounded=0;orthogonalLoop=1;jettySize=auto;html=1;exitX=0;exitY=0.5;exitDx=0;exitDy=0;entryX=1;entryY=0.72;entryDx=0;entryDy=0;entryPerimeter=0;startArrow=classic;startFill=1;strokeWidth=3;verticalAlign=bottom;fontSize=20;" edge="1" parent="1" source="ZXHpGrxiDeVHdWuwlrww-20" target="ZXHpGrxiDeVHdWuwlrww-4">
          <mxGeometry relative="1" as="geometry" />
        </mxCell>
        <mxCell id="ZXHpGrxiDeVHdWuwlrww-20" value="Surface" style="rounded=0;whiteSpace=wrap;html=1;fillColor=#4D9900;fontColor=#ffffff;strokeColor=#000000;strokeWidth=3;fontSize=20;fontStyle=1" vertex="1" parent="1">
          <mxGeometry x="220" y="350" width="120" height="50" as="geometry" />
        </mxCell>
        <mxCell id="ZXHpGrxiDeVHdWuwlrww-23" value="0 Req" style="edgeStyle=orthogonalEdgeStyle;rounded=0;orthogonalLoop=1;jettySize=auto;html=1;exitX=1;exitY=0.75;exitDx=0;exitDy=0;entryX=0;entryY=0.75;entryDx=0;entryDy=0;strokeWidth=3;verticalAlign=top;fontSize=20;" edge="1" parent="1" source="ZXHpGrxiDeVHdWuwlrww-21" target="ZXHpGrxiDeVHdWuwlrww-11">
          <mxGeometry relative="1" as="geometry" />
        </mxCell>
        <mxCell id="ZXHpGrxiDeVHdWuwlrww-24" value="0 Inst" style="edgeStyle=orthogonalEdgeStyle;rounded=0;orthogonalLoop=1;jettySize=auto;html=1;exitX=0;exitY=0.5;exitDx=0;exitDy=0;entryX=1.075;entryY=0.939;entryDx=0;entryDy=0;entryPerimeter=0;startArrow=classic;startFill=1;strokeWidth=3;verticalAlign=bottom;fontSize=20;" edge="1" parent="1" source="ZXHpGrxiDeVHdWuwlrww-21" target="ZXHpGrxiDeVHdWuwlrww-4">
          <mxGeometry relative="1" as="geometry" />
        </mxCell>
        <mxCell id="ZXHpGrxiDeVHdWuwlrww-21" value="Shared" style="rounded=0;whiteSpace=wrap;html=1;fillColor=#4D9900;fontColor=#ffffff;strokeColor=#000000;strokeWidth=3;fontSize=20;fontStyle=1" vertex="1" parent="1">
          <mxGeometry x="220" y="440" width="120" height="50" as="geometry" />
        </mxCell>
        <mxCell id="ZXHpGrxiDeVHdWuwlrww-41" value="0 Req" style="edgeStyle=orthogonalEdgeStyle;rounded=0;orthogonalLoop=1;jettySize=auto;html=1;exitX=1;exitY=0.25;exitDx=0;exitDy=0;entryX=-0.025;entryY=0.041;entryDx=0;entryDy=0;entryPerimeter=0;strokeWidth=3;fontSize=20;verticalAlign=bottom;startArrow=classic;startFill=1;endArrow=none;endFill=0;" edge="1" parent="1">
          <mxGeometry relative="1" as="geometry">
            <mxPoint x="340" y="180" as="sourcePoint" />
            <mxPoint x="480" y="180" as="targetPoint" />
          </mxGeometry>
        </mxCell>
        <mxCell id="ZXHpGrxiDeVHdWuwlrww-42" value="&lt;div&gt;0 Req&lt;/div&gt;" style="edgeStyle=orthogonalEdgeStyle;rounded=0;orthogonalLoop=1;jettySize=auto;html=1;exitX=1;exitY=0.25;exitDx=0;exitDy=0;entryX=-0.025;entryY=0.041;entryDx=0;entryDy=0;entryPerimeter=0;strokeWidth=3;fontSize=20;verticalAlign=bottom;startArrow=classic;startFill=1;endArrow=none;endFill=0;" edge="1" parent="1">
          <mxGeometry relative="1" as="geometry">
            <mxPoint x="340" y="284.5" as="sourcePoint" />
            <mxPoint x="480" y="284.5" as="targetPoint" />
          </mxGeometry>
        </mxCell>
        <mxCell id="ZXHpGrxiDeVHdWuwlrww-43" value="0 Req" style="edgeStyle=orthogonalEdgeStyle;rounded=0;orthogonalLoop=1;jettySize=auto;html=1;exitX=1;exitY=0.25;exitDx=0;exitDy=0;entryX=-0.025;entryY=0.041;entryDx=0;entryDy=0;entryPerimeter=0;strokeWidth=3;fontSize=20;verticalAlign=bottom;startArrow=classic;startFill=1;endArrow=none;endFill=0;" edge="1" parent="1">
          <mxGeometry relative="1" as="geometry">
            <mxPoint x="340" y="360" as="sourcePoint" />
            <mxPoint x="480" y="360" as="targetPoint" />
          </mxGeometry>
        </mxCell>
        <mxCell id="ZXHpGrxiDeVHdWuwlrww-44" value="0 Req" style="edgeStyle=orthogonalEdgeStyle;rounded=0;orthogonalLoop=1;jettySize=auto;html=1;exitX=1;exitY=0.25;exitDx=0;exitDy=0;entryX=-0.025;entryY=0.041;entryDx=0;entryDy=0;entryPerimeter=0;strokeWidth=3;startArrow=none;startFill=0;endArrow=classic;endFill=1;fontSize=20;verticalAlign=top;" edge="1" parent="1">
          <mxGeometry relative="1" as="geometry">
            <mxPoint x="340" y="210" as="sourcePoint" />
            <mxPoint x="480" y="210" as="targetPoint" />
          </mxGeometry>
        </mxCell>
        <mxCell id="ZXHpGrxiDeVHdWuwlrww-45" value="122.88k Req" style="edgeStyle=orthogonalEdgeStyle;rounded=0;orthogonalLoop=1;jettySize=auto;html=1;exitX=1;exitY=0.25;exitDx=0;exitDy=0;entryX=-0.025;entryY=0.041;entryDx=0;entryDy=0;entryPerimeter=0;strokeWidth=3;startArrow=none;startFill=0;endArrow=classic;endFill=1;fontSize=20;verticalAlign=top;" edge="1" parent="1">
          <mxGeometry relative="1" as="geometry">
            <mxPoint x="340" y="120" as="sourcePoint" />
            <mxPoint x="480" y="120" as="targetPoint" />
          </mxGeometry>
        </mxCell>
        <mxCell id="ZXHpGrxiDeVHdWuwlrww-47" value="0 Req" style="edgeStyle=orthogonalEdgeStyle;rounded=0;orthogonalLoop=1;jettySize=auto;html=1;exitX=1;exitY=0.25;exitDx=0;exitDy=0;entryX=-0.025;entryY=0.041;entryDx=0;entryDy=0;entryPerimeter=0;strokeWidth=3;startArrow=none;startFill=0;endArrow=classic;endFill=1;fontSize=20;verticalAlign=top;" edge="1" parent="1">
          <mxGeometry relative="1" as="geometry">
            <mxPoint x="340" y="390" as="sourcePoint" />
            <mxPoint x="480" y="390" as="targetPoint" />
          </mxGeometry>
        </mxCell>
        <mxCell id="ZXHpGrxiDeVHdWuwlrww-49" value="11.157 MiB" style="endArrow=none;html=1;rounded=0;exitX=1;exitY=0.469;exitDx=0;exitDy=0;exitPerimeter=0;entryX=0;entryY=0.472;entryDx=0;entryDy=0;entryPerimeter=0;strokeWidth=3;startArrow=classic;startFill=1;endFill=0;fontSize=20;verticalAlign=bottom;" edge="1" parent="1" source="ZXHpGrxiDeVHdWuwlrww-12" target="ZXHpGrxiDeVHdWuwlrww-13">
          <mxGeometry width="50" height="50" relative="1" as="geometry">
            <mxPoint x="600" y="300" as="sourcePoint" />
            <mxPoint x="650" y="250" as="targetPoint" />
          </mxGeometry>
        </mxCell>
        <mxCell id="ZXHpGrxiDeVHdWuwlrww-50" value="5.718 MiB" style="endArrow=classic;html=1;rounded=0;exitX=1;exitY=0.469;exitDx=0;exitDy=0;exitPerimeter=0;entryX=0;entryY=0.472;entryDx=0;entryDy=0;entryPerimeter=0;strokeWidth=3;fontSize=20;verticalAlign=top;" edge="1" parent="1">
          <mxGeometry width="50" height="50" relative="1" as="geometry">
            <mxPoint x="600" y="259" as="sourcePoint" />
            <mxPoint x="740" y="260" as="targetPoint" />
          </mxGeometry>
        </mxCell>
        <mxCell id="ZXHpGrxiDeVHdWuwlrww-51" value="7.297 MiB" style="endArrow=none;html=1;rounded=0;exitX=1;exitY=0.469;exitDx=0;exitDy=0;exitPerimeter=0;entryX=0;entryY=0.472;entryDx=0;entryDy=0;entryPerimeter=0;strokeWidth=3;startArrow=classic;startFill=1;endFill=0;fontSize=20;verticalAlign=bottom;" edge="1" parent="1">
          <mxGeometry width="50" height="50" relative="1" as="geometry">
            <mxPoint x="860" y="310" as="sourcePoint" />
            <mxPoint x="1000" y="311" as="targetPoint" />
          </mxGeometry>
        </mxCell>
        <mxCell id="ZXHpGrxiDeVHdWuwlrww-52" value="0 B" style="endArrow=none;html=1;rounded=0;exitX=1;exitY=0.469;exitDx=0;exitDy=0;exitPerimeter=0;entryX=0;entryY=0.472;entryDx=0;entryDy=0;entryPerimeter=0;strokeWidth=3;startArrow=classic;startFill=1;endFill=0;fontSize=20;verticalAlign=bottom;" edge="1" parent="1">
          <mxGeometry width="50" height="50" relative="1" as="geometry">
            <mxPoint x="860" y="140" as="sourcePoint" />
            <mxPoint x="1000" y="141" as="targetPoint" />
          </mxGeometry>
        </mxCell>
        <mxCell id="ZXHpGrxiDeVHdWuwlrww-53" value="3.832 MiB" style="endArrow=classic;html=1;rounded=0;exitX=1;exitY=0.469;exitDx=0;exitDy=0;exitPerimeter=0;entryX=0;entryY=0.472;entryDx=0;entryDy=0;entryPerimeter=0;strokeWidth=3;fontSize=20;verticalAlign=top;" edge="1" parent="1">
          <mxGeometry width="50" height="50" relative="1" as="geometry">
            <mxPoint x="860" y="340" as="sourcePoint" />
            <mxPoint x="1000" y="341" as="targetPoint" />
          </mxGeometry>
        </mxCell>
        <mxCell id="ZXHpGrxiDeVHdWuwlrww-54" value="160 B" style="endArrow=classic;html=1;rounded=0;exitX=1;exitY=0.469;exitDx=0;exitDy=0;exitPerimeter=0;entryX=0;entryY=0.472;entryDx=0;entryDy=0;entryPerimeter=0;strokeWidth=3;fontSize=20;verticalAlign=top;" edge="1" parent="1">
          <mxGeometry width="50" height="50" relative="1" as="geometry">
            <mxPoint x="860" y="170" as="sourcePoint" />
            <mxPoint x="1000" y="171" as="targetPoint" />
          </mxGeometry>
        </mxCell>
      </root>
    </mxGraphModel>
  </diagram>
</mxfile>
